<svg xmlns="http://www.w3.org/2000/svg" width="1130" height="916.001" viewBox="0 0 1130 916.001">
  <g id="lgog" transform="translate(-44 0)">
    <path id="Color_Fill_2" data-name="Color Fill 2" d="M1174,916H44V847l91.72-63.2,30.849-21.257L282,683l-117-.5-.6,0L48,682q.438-31.945.875-63.895l.032-2.362L49,609H191V366h56V216h17l5.964-107.345L276,0h1q2.218,47.909,4.436,95.826l.583,12.592.1,2.135Q284.559,163.279,287,216h17V363h51V535h62V639h69v46l77.781-79.306L588,581q44,53.993,88,108-.25-20.229-.5-40.461V648.5q-.25-20.251-.5-40.5h57v81h22V586h62V689h358V916Zm-120-95h0l19.366.3,10.284.161L1118,822v84h44V705h-44q-.214,16.122-.43,32.248l-.071,5.293,0,.272q-.248,18.6-.5,37.189l-55.344-.865-2.169-.034L1053,779V705h-44V906h44q.249-21.176.5-42.356v-.1l.007-.575ZM834,705v42h53V906h44V747l27.047-.5.272-.005L985,746V705Zm-68,0V906h44V705ZM619,785.241h0V787l33,59.5L685,906h44V705H687q-.25,30.747-.5,61.5l0,.6L686,828v-2l-24.293-43.873-7.077-12.781-12.084-21.824L619,705H576V906h42l.076-9.2Q618.537,841.024,619,785.241ZM406,705V906H546V867l-47.736-.5L450,866V819h86V782l-78.338-.911L450,781q.253-9.642.507-19.285.246-9.358.492-18.715h92V705Zm-77-35h0L59,857l.1,5q.449,22,.9,44H393V858l-131.693-.5L129,857l.931-.465.029-.015.173-.087L131,856,401,669l-.105-5.147-.064-3.129Q400.415,640.363,400,620H65v49l244.071.918L331,670h-2Zm441-73,.083,7.78.055,5.169q.43,40.524.862,81.052h31V597Zm-82,22v71h31V619ZM587,636q.434,6.5.867,13.006l.065.975L588,651h14V636Zm-18,0v15h14V636Zm18-19v15h15V617Zm-18,0v15h14V617ZM259,590v8h22v9h10V234H259v14h22v10H259v8h22v10H259v8h22v10H259v7h22v10H259v7h22v10H259v8h22v10H259v8h22v10H259v7h22v10H259v7h22v9H259v8h22v10H259v8l12.234.556L281,424v9H259v7h22v10H259v7l11.048.5L281,458v9H259v8h22v10H259v8h22v10H259v7h22v10H259v7l2.341.106L281,528v9H259v8h22v10H259v8h22v10H259v7h22v10Zm52,11v5h31V374H311v10h21q-.237,2.37-.474,4.74-.263,2.63-.526,5.26H311v8h21v9H311v9h21q-.237,2.37-.474,4.74-.263,2.63-.526,5.26H311v7h21v9H311v8h21q-.216,2.168-.433,4.335l-.07.7q-.248,2.482-.5,4.965H311v8h21v9H311v9h21v9H311v8h21v9H311v7h21v10H311v8h21q-.25,2.5-.5,5l-.5,5H311v6l10.352.493.1,0L332,558v9H311v7h21q-.247,2.477-.5,4.956-.252,2.522-.5,5.044H311v8h21v9Zm-106,0v5h31V374H205v10h21l-.426,4.258-.044.437-.122,1.224q-.2,2.04-.408,4.081H205v8h21v9H205v9h21l-.426,4.258-.044.437-.122,1.224q-.2,2.04-.408,4.081H205v7h21v9H205v8h21q-.252,2.521-.5,5.042-.248,2.479-.5,4.959H205v8h21v9H205v9h21v9H205v8h21v9H205v7h21q-.25,2.5-.5,5l-.5,5H205v8h21q-.25,2.5-.5,5l-.5,5H205v6l10.546.5.255.012L226,558v9H205v7h21l-.495,4.946-.187,1.872L225,584H205v8h21v9Zm166-54v57h32V547Z" fill="#ae1c20"/>
  </g>
</svg>
