<svg width="113" height="113" viewBox="0 0 113 113" fill="none" xmlns="http://www.w3.org/2000/svg">
<path d="M100.641 10.5938H12.3594C11.8911 10.5938 11.442 10.7798 11.1109 11.1109C10.7798 11.442 10.5938 11.8911 10.5938 12.3594V100.641C10.5938 101.109 10.7798 101.558 11.1109 101.889C11.442 102.22 11.8911 102.406 12.3594 102.406H64.6042C65.0725 102.406 65.5216 102.22 65.8527 101.889C66.1838 101.558 66.3698 101.109 66.3698 100.641V70.4837C66.3698 70.0155 66.1838 69.5664 65.8527 69.2353C65.5216 68.9041 65.0725 68.7181 64.6042 68.7181C64.1359 68.7181 63.6869 68.9041 63.3557 69.2353C63.0246 69.5664 62.8386 70.0155 62.8386 70.4837V98.875H14.125V72.2494H47.4777C47.9459 72.2494 48.395 72.0634 48.7261 71.7322C49.0573 71.4011 49.2433 70.952 49.2433 70.4837V53.9222C49.2433 53.4539 49.0573 53.0048 48.7261 52.6737C48.395 52.3426 47.9459 52.1566 47.4777 52.1566C47.0094 52.1566 46.5603 52.3426 46.2292 52.6737C45.8981 53.0048 45.712 53.4539 45.712 53.9222V68.7181H14.125V38.8438H47.4777C47.9459 38.8438 48.395 38.6577 48.7261 38.3266C49.0573 37.9955 49.2433 37.5464 49.2433 37.0781V14.125H68.3473V26.3431C68.3473 26.8114 68.5334 27.2605 68.8645 27.5916C69.1956 27.9227 69.6447 28.1088 70.113 28.1088C70.5812 28.1088 71.0303 27.9227 71.3615 27.5916C71.6926 27.2605 71.8786 26.8114 71.8786 26.3431V14.125H98.875V40.3975H70.113C69.6447 40.3975 69.1956 40.5835 68.8645 40.9146C68.5334 41.2458 68.3473 41.6949 68.3473 42.1631C68.3473 42.6314 68.5334 43.0805 68.8645 43.4116C69.1956 43.7427 69.6447 43.9287 70.113 43.9287H98.875V68.6475H80.0358C79.5675 68.6475 79.1184 68.8335 78.7873 69.1646C78.4562 69.4958 78.2702 69.9449 78.2702 70.4131C78.2702 70.8814 78.4562 71.3305 78.7873 71.6616C79.1184 71.9927 79.5675 72.1788 80.0358 72.1788H98.875V98.875H82.9844C82.5161 98.875 82.067 99.061 81.7359 99.3921C81.4048 99.7233 81.2188 100.172 81.2188 100.641C81.2188 101.109 81.4048 101.558 81.7359 101.889C82.067 102.22 82.5161 102.406 82.9844 102.406H100.641C101.109 102.406 101.558 102.22 101.889 101.889C102.22 101.558 102.406 101.109 102.406 100.641V12.3594C102.406 11.8911 102.22 11.442 101.889 11.1109C101.558 10.7798 101.109 10.5938 100.641 10.5938ZM45.712 35.3125H14.125V14.125H45.712V35.3125Z" fill="#AE1C20"/>
</svg>
