<svg width="137" height="137" viewBox="0 0 137 137" fill="none" xmlns="http://www.w3.org/2000/svg">
<g clip-path="url(#clip0_34_387)">
<path d="M97.0417 62.7917V17.125H39.9583V39.9583H17.125V119.875H62.7917V97.0417H74.2083V119.875H119.875V62.7917H97.0417ZM39.9583 108.458H28.5417V97.0417H39.9583V108.458ZM39.9583 85.625H28.5417V74.2083H39.9583V85.625ZM39.9583 62.7917H28.5417V51.375H39.9583V62.7917ZM62.7917 85.625H51.375V74.2083H62.7917V85.625ZM62.7917 62.7917H51.375V51.375H62.7917V62.7917ZM62.7917 39.9583H51.375V28.5417H62.7917V39.9583ZM85.625 85.625H74.2083V74.2083H85.625V85.625ZM85.625 62.7917H74.2083V51.375H85.625V62.7917ZM85.625 39.9583H74.2083V28.5417H85.625V39.9583ZM108.458 108.458H97.0417V97.0417H108.458V108.458ZM108.458 85.625H97.0417V74.2083H108.458V85.625Z" fill="#AE1C20"/>
</g>
<defs>
<clipPath id="clip0_34_387">
<rect width="137" height="137" fill="white"/>
</clipPath>
</defs>
</svg>
