<svg width="112" height="112" viewBox="0 0 112 112" fill="none" xmlns="http://www.w3.org/2000/svg">
<path d="M25.1172 50.0312H18.8125C19.1406 47.4844 20.0547 45.4375 21.5547 43.8906C23.6484 41.7344 26.2812 40.6562 29.4531 40.6562C32.2812 40.6562 34.6484 41.5547 36.5547 43.3516C38.4766 45.1484 39.4375 47.2812 39.4375 49.75C39.4375 51.2812 39.0156 52.6797 38.1719 53.9453C37.3438 55.2109 36.1328 56.2344 34.5391 57.0156C36.6328 57.6406 38.2656 58.7344 39.4375 60.2969C40.625 61.8438 41.2188 63.6719 41.2188 65.7812C41.2188 68.875 40.0781 71.5 37.7969 73.6562C35.5156 75.7969 32.6094 76.8672 29.0781 76.8672C25.7344 76.8672 23.0078 75.8594 20.8984 73.8438C18.7891 71.8125 17.6328 69.0547 17.4297 65.5703H23.9219C24.2031 67.3516 24.8203 68.6797 25.7734 69.5547C26.7422 70.4141 27.9609 70.8438 29.4297 70.8438C30.9609 70.8438 32.2266 70.3516 33.2266 69.3672C34.2422 68.3828 34.75 67.1797 34.75 65.7578C34.75 64.1953 34.0703 62.875 32.7109 61.7969C31.3516 60.7188 29.3906 60.1641 26.8281 60.1328V54.5078C28.4062 54.3828 29.5781 54.1406 30.3438 53.7812C31.125 53.4062 31.7266 52.8984 32.1484 52.2578C32.5859 51.6172 32.8047 50.9375 32.8047 50.2188C32.8047 49.2812 32.4766 48.5078 31.8203 47.8984C31.1641 47.2734 30.3047 46.9609 29.2422 46.9609C28.3047 46.9609 27.4531 47.25 26.6875 47.8281C25.9219 48.3906 25.3984 49.125 25.1172 50.0312ZM50.9219 41.5234H67.0703V47.5703H55.8203L54.4141 53.8516C54.8047 53.7422 55.1875 53.6641 55.5625 53.6172C55.9375 53.5547 56.2969 53.5234 56.6406 53.5234C59.7656 53.5234 62.3594 54.5938 64.4219 56.7344C66.5 58.8594 67.5391 61.5859 67.5391 64.9141C67.5391 68.2734 66.3906 71.1094 64.0938 73.4219C61.8125 75.7188 59.0312 76.8672 55.75 76.8672C52.8125 76.8672 50.2891 76.0312 48.1797 74.3594C46.0703 72.6875 44.6875 70.3984 44.0312 67.4922H50.9219C51.4531 68.5703 52.1484 69.3906 53.0078 69.9531C53.8828 70.5 54.8438 70.7734 55.8906 70.7734C57.3438 70.7734 58.5781 70.25 59.5938 69.2031C60.6094 68.1562 61.1172 66.8125 61.1172 65.1719C61.1172 63.5781 60.6406 62.2734 59.6875 61.2578C58.75 60.2266 57.6094 59.7109 56.2656 59.7109C55.5469 59.7109 54.8359 59.8906 54.1328 60.25C53.4453 60.6094 52.7656 61.1484 52.0938 61.8672L46.75 60.6719L50.9219 41.5234ZM81.2969 55.8438V47.0547H87.1562V55.8438H95.9219V61.7031H87.1562V70.4688H81.2969V61.7031H72.5078V55.8438H81.2969Z" fill="#AE1C20"/>
<circle cx="56" cy="56" r="54.5" stroke="#AE1C20" stroke-width="3"/>
</svg>
