<svg width="152" height="122" viewBox="0 0 152 122" fill="none" xmlns="http://www.w3.org/2000/svg">
<g clip-path="url(#clip0_34_393)">
<path d="M76.0001 45.5999C82.9984 45.5999 88.6667 39.9316 88.6667 32.9333C88.6667 25.9349 82.9984 20.2666 76.0001 20.2666C69.0017 20.2666 63.3334 25.9349 63.3334 32.9333C63.3334 39.9316 69.0017 45.5999 76.0001 45.5999ZM76.0001 51.9333C67.5451 51.9333 50.6667 56.1766 50.6667 64.5999V70.9333H101.333V64.5999C101.333 56.1766 84.4551 51.9333 76.0001 51.9333Z" fill="#AE1C20"/>
</g>
<g clip-path="url(#clip1_34_393)">
<path d="M114 38C120.998 38 126.667 32.3316 126.667 25.3333C126.667 18.335 120.998 12.6666 114 12.6666C107.002 12.6666 101.333 18.335 101.333 25.3333C101.333 32.3316 107.002 38 114 38ZM114 44.3333C105.545 44.3333 88.6667 48.5766 88.6667 57V63.3333H139.333V57C139.333 48.5766 122.455 44.3333 114 44.3333Z" fill="#AE1C20"/>
</g>
<g clip-path="url(#clip2_34_393)">
<path d="M38.0001 38C44.9984 38 50.6667 32.3316 50.6667 25.3333C50.6667 18.335 44.9984 12.6666 38.0001 12.6666C31.0017 12.6666 25.3334 18.335 25.3334 25.3333C25.3334 32.3316 31.0017 38 38.0001 38ZM38.0001 44.3333C29.5451 44.3333 12.6667 48.5766 12.6667 57V63.3333H63.3334V57C63.3334 48.5766 46.4551 44.3333 38.0001 44.3333Z" fill="#AE1C20"/>
</g>
<g clip-path="url(#clip3_34_393)">
<path d="M76.2713 107.443L89.2714 115.289L85.8215 100.501L97.307 90.5513L82.1823 89.2681L76.2713 75.3214L70.3603 89.2681L55.2356 90.5513L66.7211 100.501L63.2712 115.289L76.2713 107.443Z" fill="#AE1C20"/>
</g>
<g clip-path="url(#clip4_34_393)">
<path d="M108.029 97.9156L117.814 103.821L115.217 92.6906L123.862 85.2014L112.478 84.2356L108.029 73.7381L103.579 84.2356L92.1953 85.2014L100.84 92.6906L98.2436 103.821L108.029 97.9156Z" fill="#AE1C20"/>
</g>
<g clip-path="url(#clip5_34_393)">
<path d="M42.8858 97.9156L52.6708 103.821L50.0742 92.6906L58.7192 85.2014L47.335 84.2356L42.8858 73.7381L38.4367 84.2356L27.0525 85.2014L35.6975 92.6906L33.1008 103.821L42.8858 97.9156Z" fill="#AE1C20"/>
</g>
<g clip-path="url(#clip6_34_393)">
<path d="M131.914 89.3217L138.624 93.3714L136.843 85.7389L142.771 80.6034L134.965 79.9411L131.914 72.7429L128.863 79.9411L121.057 80.6034L126.985 85.7389L125.205 93.3714L131.914 89.3217Z" fill="#AE1C20"/>
</g>
<g clip-path="url(#clip7_34_393)">
<path d="M20.0857 89.3217L26.7954 93.3714L25.0148 85.7389L30.9428 80.6034L23.1365 79.9411L20.0857 72.7429L17.0348 79.9411L9.22852 80.6034L15.1565 85.7389L13.3759 93.3714L20.0857 89.3217Z" fill="#AE1C20"/>
</g>
<defs>
<clipPath id="clip0_34_393">
<rect width="76" height="76" fill="white" transform="translate(38 7.59998)"/>
</clipPath>
<clipPath id="clip1_34_393">
<rect width="76" height="76" fill="white" transform="translate(76)"/>
</clipPath>
<clipPath id="clip2_34_393">
<rect width="76" height="76" fill="white"/>
</clipPath>
<clipPath id="clip3_34_393">
<rect width="50.4857" height="50.4857" fill="white" transform="translate(51.0286 71.1143)"/>
</clipPath>
<clipPath id="clip4_34_393">
<rect width="38" height="38" fill="white" transform="translate(89.0286 70.5714)"/>
</clipPath>
<clipPath id="clip5_34_393">
<rect width="38" height="38" fill="white" transform="translate(23.8857 70.5714)"/>
</clipPath>
<clipPath id="clip6_34_393">
<rect width="26.0571" height="26.0571" fill="white" transform="translate(118.886 70.5714)"/>
</clipPath>
<clipPath id="clip7_34_393">
<rect width="26.0571" height="26.0571" fill="white" transform="translate(7.05713 70.5714)"/>
</clipPath>
</defs>
</svg>
